<svg width="250" height="80" version="1.1" xmlns="http://www.w3.org/2000/svg"><path fill="rgb(0,0,0)" stroke="rgb(0,0,0)" stroke-width="1" opacity="0" d="M 0 0 L 249.5 0 L 250 0.5 L 250 80 L 0.5 80 L 0 79.5 L 0 0 Z M 203 3 L 199 8 L 200 19 L 207 36 L 209 38 Q 198 28 183 24 L 178 25 Q 174 26 175 32 Q 178 36 185 38 L 194 40 L 203 40 L 206 42 Q 195 45 188 52 L 183 56 L 184 54 Q 186 46 181 48 Q 183 55 179 57 L 176 55 L 175 50 L 175 37 L 174 35 L 171 32 L 164 33 L 161 35 L 161 33 L 156 33 Q 157 37 155 38 Q 152 37 153 41 L 156 40 L 156 52 L 157 53 Q 155 61 162 58 L 161 56 Q 160 45 162 38 Q 163 34 169 35 L 171 41 L 171 55 L 172 57 Q 174 61 181 59 L 183 58 L 181 61 L 182 65 L 186 67 L 195 63 L 210 44 L 209 46 L 209 63 L 213 76 L 220 77 L 223 73 Q 222 56 215 47 L 216 44 L 219 47 L 239 56 L 245 55 L 247 52 L 246 48 Q 238 40 222 40 L 220 40 L 216 39 L 221 37 L 236 27 L 240 22 Q 241 16 239 14 L 236 13 L 229 16 L 214 33 Q 215 35 212 34 L 213 31 L 212 13 L 210 7 Q 209 2 203 3 Z M 28 6 L 21 8 Q 13 12 15 25 L 16 26 L 11 24 L 6 19 Q 5 14 8 13 L 11 15 Q 12 17 10 16 L 8 19 L 13 18 L 14 15 L 13 11 L 7 10 L 3 15 Q 2 21 5 24 L 10 27 L 19 29 L 20 32 L 15 34 L 10 42 Q 9 50 12 54 L 20 59 L 30 59 L 35 56 L 38 50 Q 39 42 36 39 L 34 36 L 28 34 L 22 36 L 18 41 L 19 49 L 24 51 L 29 50 L 31 47 Q 33 41 30 42 L 27 48 Q 22 49 21 46 Q 20 38 25 37 L 32 38 L 35 43 Q 37 51 33 54 L 26 57 L 20 55 L 16 51 L 15 46 L 16 39 Q 18 34 25 33 L 26 30 L 22 29 L 30 25 L 35 18 L 35 11 L 32 7 L 28 6 Z M 72 6 L 69 7 Q 64 10 63 17 L 62 22 L 62 37 L 60 38 L 58 41 L 62 40 L 63 57 Q 65 61 72 59 L 75 55 L 75 48 L 72 48 Q 74 55 70 57 L 67 54 L 67 36 Q 76 29 78 16 L 77 10 L 72 6 Z M 120 23 L 117 28 Q 118 30 123 29 L 124 27 L 123 24 L 120 23 Z M 48 32 L 45 34 L 41 40 L 40 45 Q 40 52 43 57 Q 46 60 54 59 L 59 53 Q 61 46 56 48 L 55 55 L 52 57 L 49 56 L 45 51 Q 43 39 49 35 Q 55 34 54 37 Q 56 38 54 39 L 52 36 L 49 38 L 50 40 Q 49 42 56 41 Q 58 40 57 35 Q 55 31 48 32 Z M 84 32 L 78 35 L 76 41 Q 74 51 78 56 Q 80 61 90 59 Q 94 56 96 50 Q 97 41 94 37 Q 92 31 84 32 Z M 105 32 L 102 35 Q 103 40 100 41 L 105 41 L 109 49 L 109 54 L 105 57 L 102 56 Q 99 55 100 50 L 104 48 L 105 51 L 102 52 L 103 55 L 106 54 Q 108 53 107 48 L 104 45 Q 99 45 97 49 Q 95 57 101 59 L 110 58 L 114 52 Q 114 42 107 39 L 108 37 L 108 35 Q 109 30 105 32 Z M 140 32 L 138 33 Q 133 36 132 42 Q 131 51 134 56 L 139 59 L 148 58 L 152 51 L 152 41 L 149 34 Q 146 31 140 32 Z M 118 33 L 118 36 L 115 40 L 115 41 L 118 40 L 118 53 L 120 58 Q 122 60 128 59 L 131 55 Q 132 47 130 48 L 128 50 L 128 56 L 126 57 L 123 54 L 123 34 L 118 33 Z "></path><path fill="rgb(0,0,0)" stroke="rgb(0,0,0)" stroke-width="1" opacity="0" d="M 25.5 9 Q 30.6 8.4 32 11.5 Q 33.4 21.9 26.5 24 L 20.5 26 L 20 15.5 L 23.5 10 L 25.5 9 Z "></path><path fill="rgb(0,0,0)" stroke="rgb(0,0,0)" stroke-width="1" opacity="0" d="M 71.5 9 L 74 10.5 L 75 17.5 Q 73.5 26.5 67.5 31 L 67 16.5 L 71.5 9 Z "></path><path fill="rgb(0,0,0)" stroke="rgb(0,0,0)" stroke-width="1" opacity="0" d="M 84 35 L 88 35.5 L 86 36 Q 87.3 40.1 84 39 L 84 35 Z "></path><path fill="rgb(0,0,0)" stroke="rgb(0,0,0)" stroke-width="1" opacity="0" d="M 140 35 L 144 35.5 L 142 36 L 141.5 39 L 140 35 Z "></path><path fill="rgb(0,0,0)" stroke="rgb(0,0,0)" stroke-width="1" opacity="0" d="M 89.5 37 Q 92.7 41.9 91 51.5 L 87.5 56 L 85.5 57 L 83 56 L 81 52.5 L 81 39.5 L 82 39.5 Q 81.1 42.9 86.5 41 L 89.5 37 Z "></path><path fill="rgb(0,0,0)" stroke="rgb(0,0,0)" stroke-width="1" opacity="0" d="M 145.5 37 L 147 39.5 L 147 51.5 L 145 56 L 141.5 57 L 139 56 Q 135.1 50.8 137 38.5 L 138 38.5 L 138 41 L 144 41 L 145.5 37 Z "></path><path fill="rgb(206,30,41)" stroke="rgb(206,30,41)" stroke-width="1" opacity="0.13333333333333333" d="M 199.5 12 L 202 20.5 L 201 20.5 L 199.5 12 Z "></path><path fill="rgb(206,30,41)" stroke="rgb(206,30,41)" stroke-width="1" opacity="0.13333333333333333" d="M 211.5 12 L 212 16.5 L 211 16.5 L 211.5 12 Z "></path><path fill="rgb(206,30,41)" stroke="rgb(206,30,41)" stroke-width="1" opacity="0.13333333333333333" d="M 228.5 16 L 223.5 22 L 228.5 16 Z "></path><path fill="rgb(206,30,41)" stroke="rgb(206,30,41)" stroke-width="1" opacity="0.13333333333333333" d="M 237.5 24 L 235.5 27 L 230.5 30 L 230.5 29 L 237.5 24 Z "></path><path fill="rgb(206,30,41)" stroke="rgb(206,30,41)" stroke-width="1" opacity="0.13333333333333333" d="M 188.5 26 L 192 27.5 L 190.5 28 L 188.5 26 Z "></path><path fill="rgb(206,30,41)" stroke="rgb(206,30,41)" stroke-width="1" opacity="0.13333333333333333" d="M 184.5 37 L 187 37.5 L 184.5 38 L 184.5 37 Z "></path><path fill="rgb(206,30,41)" stroke="rgb(206,30,41)" stroke-width="1" opacity="0.13333333333333333" d="M 191.5 49 L 187.5 54 L 184.5 56 L 187.5 52 L 191.5 49 Z "></path><path fill="rgb(206,30,41)" stroke="rgb(206,30,41)" stroke-width="1" opacity="0.13333333333333333" d="M 230.5 52 L 233 53.5 L 231.5 53 L 230.5 52 Z "></path><path fill="rgb(206,30,41)" stroke="rgb(206,30,41)" stroke-width="1" opacity="0.13333333333333333" d="M 198.5 58 L 194.5 63 L 198.5 58 Z "></path><path fill="rgb(206,30,41)" stroke="rgb(206,30,41)" stroke-width="1" opacity="0.13333333333333333" d="M 210.5 66 L 211 68.5 L 210 68.5 L 210.5 66 Z "></path><path fill="rgb(250,133,4)" stroke="rgb(250,133,4)" stroke-width="1" opacity="0.8823529411764706" d="M 23.5 7 Q 31.5 5.5 34 9.5 L 35 16.5 L 31 24 L 22 28.5 L 25 30 Q 26.8 34.5 21.5 33 L 17 36.5 Q 13.7 40.2 15 48.5 L 20.5 56 L 27.5 57 L 35 51.5 L 36 44.5 L 34 39 L 30.5 37 L 24.5 37 L 21 39.5 L 20 44.5 L 22.5 48 Q 27 49 28 46.5 L 29 43 Q 32 41.8 31 45.5 L 27.5 50 Q 20.5 51.5 19 47.5 L 18 41.5 L 23.5 35 L 31.5 35 L 35 37 L 38 43.5 L 38 48.5 Q 36.8 54.3 32.5 57 Q 29.8 59.8 23.5 59 L 16.5 57 L 12 52.5 Q 9.4 49.6 10 43.5 Q 11.1 36.1 16.5 33 L 22 30.5 L 17.5 28 L 13.5 28 L 8.5 26 L 5 22.5 L 3 16.5 L 5 11 L 9.5 10 L 13 12.5 Q 14 18 10.5 19 Q 8.3 19.8 9 17.5 L 11 13.5 L 8.5 12 L 6 13 Q 4.5 21.2 9.5 24 L 16 26 L 15 16.5 L 21.5 8 L 23.5 7 Z M 26 9 L 24 10 L 19 18 L 20 26 L 29 23 L 33 16 L 32 10 L 26 9 Z "></path><path fill="rgb(250,133,4)" stroke="rgb(250,133,4)" stroke-width="1" opacity="0.8823529411764706" d="M 69.5 7 Q 76 6 77 10.5 Q 78 19.5 75 24.5 L 66 36.5 L 66 52.5 L 68.5 57 L 72 55.5 L 73 49 Q 76 47.8 75 51.5 L 73 58 L 68.5 59 L 64 56.5 Q 61 49.5 61.5 39 L 59.5 40 L 60.5 38 L 62 37.5 L 62 27.5 L 63 26.5 L 64 13.5 L 69.5 7 Z M 71 9 L 67 15 Q 69 20 66 22 L 67 33 Q 72 28 75 20 L 75 12 L 74 11 Q 75 8 71 9 Z "></path><path fill="rgb(250,133,4)" stroke="rgb(250,133,4)" stroke-width="1" opacity="0.8823529411764706" d="M 48.5 32 Q 55.4 31.1 57 35.5 Q 57.8 40.3 54.5 41 Q 50.8 41.8 50 39.5 Q 49 35.8 52 37 Q 50.9 40.3 55 39 Q 55.8 35.2 52.5 34 Q 47.8 34.3 46 37.5 L 45 39.5 L 45 51.5 L 47 56 L 52.5 57 Q 56.9 54.6 57 49 L 59 49.5 L 57 55.5 L 54.5 58 L 48.5 59 L 43 55.5 Q 39.2 50.8 41 40.5 L 46.5 33 L 48.5 32 Z "></path><path fill="rgb(250,133,4)" stroke="rgb(250,133,4)" stroke-width="1" opacity="0.8823529411764706" d="M 86.5 32 L 93 35.5 Q 97 40.5 95 51.5 L 90.5 58 L 84.5 59 L 78 54.5 L 76 43.5 L 78 36.5 L 80.5 34 L 86.5 32 Z M 84 34 L 83 37 L 85 39 Q 87 40 86 37 L 88 37 L 87 41 L 82 40 L 82 36 L 80 41 Q 79 49 81 54 Q 82 58 88 57 L 91 53 Q 90 48 92 47 L 90 37 Q 89 33 84 34 Z "></path><path fill="rgb(250,133,4)" stroke="rgb(250,133,4)" stroke-width="1" opacity="0.8823529411764706" d="M 105.5 32 L 108 33 L 107 38.5 L 113 46.5 L 113 52.5 L 111 57 L 103.5 59 L 98 55.5 L 97 49.5 Q 98 45 104.5 46 Q 107.5 46.5 107 50.5 L 104.5 54 L 102 53.5 L 105 52 L 105 48 L 103.5 48 L 101.5 48 Q 99.3 47.3 100 49.5 L 99 53.5 L 100 56 L 106.5 57 Q 109.8 55.3 110 50.5 L 105 40 L 101.5 41 L 101 39 L 103 39 L 103 33.5 L 104.5 33 L 105.5 32 Z "></path><path fill="rgb(79,25,63)" stroke="rgb(79,25,63)" stroke-width="1" opacity="0.1803921568627451" d="M 212.5 20 L 213 30.5 L 212 30.5 L 212.5 20 Z "></path><path fill="rgb(79,25,63)" stroke="rgb(79,25,63)" stroke-width="1" opacity="0.1803921568627451" d="M 201.5 21 L 203 23.5 L 202 23.5 L 201.5 21 Z "></path><path fill="rgb(79,25,63)" stroke="rgb(79,25,63)" stroke-width="1" opacity="0.1803921568627451" d="M 222.5 22 L 222 23.5 L 213.5 35 L 212 34.5 L 214 34 L 222.5 22 Z "></path><path fill="rgb(79,25,63)" stroke="rgb(79,25,63)" stroke-width="1" opacity="0.1803921568627451" d="M 203.5 25 L 205 28.5 L 204 28.5 L 203.5 25 Z "></path><path fill="rgb(79,25,63)" stroke="rgb(79,25,63)" stroke-width="1" opacity="0.1803921568627451" d="M 192.5 28 L 206.5 36 L 207 34.5 L 205 30.5 L 206 30.5 L 209 36.5 L 206.5 37 L 204.5 35 L 192.5 29 L 192.5 28 Z "></path><path fill="rgb(79,25,63)" stroke="rgb(79,25,63)" stroke-width="1" opacity="0.1803921568627451" d="M 229.5 30 L 228.5 32 L 223.5 35 L 224.5 33 L 229.5 30 Z "></path><path fill="rgb(79,25,63)" stroke="rgb(79,25,63)" stroke-width="1" opacity="0.1803921568627451" d="M 221.5 35 L 220.5 37 L 219 36.5 L 221.5 35 Z "></path><path fill="rgb(79,25,63)" stroke="rgb(79,25,63)" stroke-width="1" opacity="0.1803921568627451" d="M 215.5 38 L 219 39.5 L 213.5 40 L 213.5 39 L 215.5 38 Z "></path><path fill="rgb(79,25,63)" stroke="rgb(79,25,63)" stroke-width="1" opacity="0.1803921568627451" d="M 193.5 39 L 199 39.5 L 193.5 40 L 193.5 39 Z "></path><path fill="rgb(79,25,63)" stroke="rgb(79,25,63)" stroke-width="1" opacity="0.1803921568627451" d="M 203.5 40 L 208 40.5 Q 206.7 43.3 205.5 41 Q 202.5 41.5 203.5 40 Z "></path><path fill="rgb(79,25,63)" stroke="rgb(79,25,63)" stroke-width="1" opacity="0.1803921568627451" d="M 223.5 40 L 228 40.5 L 223.5 41 L 223.5 40 Z "></path><path fill="rgb(79,25,63)" stroke="rgb(79,25,63)" stroke-width="1" opacity="0.1803921568627451" d="M 213.5 42 L 215 45.5 L 214 45.5 L 213.5 42 Z "></path><path fill="rgb(79,25,63)" stroke="rgb(79,25,63)" stroke-width="1" opacity="0.1803921568627451" d="M 201.5 43 L 203 43.5 L 192.5 50 L 194.5 47 L 201.5 43 Z "></path><path fill="rgb(79,25,63)" stroke="rgb(79,25,63)" stroke-width="1" opacity="0.1803921568627451" d="M 209.5 43 L 210 45.5 L 209.5 62 L 209 45.5 L 208 44.5 L 209.5 43 Z "></path><path fill="rgb(79,25,63)" stroke="rgb(79,25,63)" stroke-width="1" opacity="0.1803921568627451" d="M 216.5 44 L 225 49.5 L 223.5 49 Q 217.5 47.9 216.5 44 Z "></path><path fill="rgb(79,25,63)" stroke="rgb(79,25,63)" stroke-width="1" opacity="0.1803921568627451" d="M 207.5 46 L 206 48.5 L 199.5 57 L 203 52.5 L 207.5 46 Z "></path><path fill="rgb(79,25,63)" stroke="rgb(79,25,63)" stroke-width="1" opacity="0.1803921568627451" d="M 216.5 49 L 218 52.5 L 217 52.5 L 216.5 49 Z "></path><path fill="rgb(235,141,24)" stroke="rgb(235,141,24)" stroke-width="1" opacity="0.2627450980392157" d="M 202.5 3 Q 209 2 210 6.5 L 211 11.5 L 210 11.5 Q 210.7 5.3 206.5 4 Q 202 3 201 5.5 L 199.5 12 L 199 7.5 L 202.5 3 Z "></path><path fill="rgb(235,141,24)" stroke="rgb(235,141,24)" stroke-width="1" opacity="0.2627450980392157" d="M 68.5 7 L 65.5 11 L 68.5 7 Z "></path><path fill="rgb(235,141,24)" stroke="rgb(235,141,24)" stroke-width="1" opacity="0.2627450980392157" d="M 74.5 7 L 76.5 10 L 74.5 7 Z "></path><path fill="rgb(235,141,24)" stroke="rgb(235,141,24)" stroke-width="1" opacity="0.2627450980392157" d="M 20.5 8 L 17.5 12 L 20.5 8 Z "></path><path fill="rgb(235,141,24)" stroke="rgb(235,141,24)" stroke-width="1" opacity="0.2627450980392157" d="M 70.5 9 L 69.5 11 L 70.5 9 Z "></path><path fill="rgb(235,141,24)" stroke="rgb(235,141,24)" stroke-width="1" opacity="0.2627450980392157" d="M 8.5 12 L 11 13.5 L 9.5 13 L 8.5 12 Z "></path><path fill="rgb(235,141,24)" stroke="rgb(235,141,24)" stroke-width="1" opacity="0.2627450980392157" d="M 32.5 12 L 33 15.5 L 32 15.5 L 32.5 12 Z "></path><path fill="rgb(235,141,24)" stroke="rgb(235,141,24)" stroke-width="1" opacity="0.2627450980392157" d="M 77.5 13 L 78 15.5 L 77 15.5 L 77.5 13 Z "></path><path fill="rgb(235,141,24)" stroke="rgb(235,141,24)" stroke-width="1" opacity="0.2627450980392157" d="M 234.5 13 L 236 13.5 Q 229.3 14.8 226.5 20 L 231.5 14 L 234.5 13 Z "></path><path fill="rgb(235,141,24)" stroke="rgb(235,141,24)" stroke-width="1" opacity="0.2627450980392157" d="M 237.5 14 L 240 17.5 L 239 17.5 L 237.5 14 Z "></path><path fill="rgb(235,141,24)" stroke="rgb(235,141,24)" stroke-width="1" opacity="0.2627450980392157" d="M 9.5 16 L 9 17.5 L 8.5 19 L 8 17.5 L 9.5 16 Z "></path><path fill="rgb(235,141,24)" stroke="rgb(235,141,24)" stroke-width="1" opacity="0.2627450980392157" d="M 3.5 17 L 4 19.5 L 3 19.5 L 3.5 17 Z "></path><path fill="rgb(235,141,24)" stroke="rgb(235,141,24)" stroke-width="1" opacity="0.2627450980392157" d="M 19.5 17 L 20 22.5 L 19 22.5 L 19.5 17 Z "></path><path fill="rgb(235,141,24)" stroke="rgb(235,141,24)" stroke-width="1" opacity="0.2627450980392157" d="M 239.5 19 L 240 21.5 L 235 25.5 Q 239.1 24.1 239.5 19 Z "></path><path fill="rgb(235,141,24)" stroke="rgb(235,141,24)" stroke-width="1" opacity="0.2627450980392157" d="M 29.5 21 L 28.5 23 L 29.5 21 Z "></path><path fill="rgb(235,141,24)" stroke="rgb(235,141,24)" stroke-width="1" opacity="0.2627450980392157" d="M 32.5 21 L 31.5 23 L 32.5 21 Z "></path><path fill="rgb(235,141,24)" stroke="rgb(235,141,24)" stroke-width="1" opacity="0.2627450980392157" d="M 62.5 21 L 63 26.5 L 62 26.5 L 62.5 21 Z "></path><path fill="rgb(235,141,24)" stroke="rgb(235,141,24)" stroke-width="1" opacity="0.2627450980392157" d="M 66.5 21 L 67.5 31 L 70 29.5 L 66 32.5 L 66.5 21 Z "></path><path fill="rgb(235,141,24)" stroke="rgb(235,141,24)" stroke-width="1" opacity="0.2627450980392157" d="M 8.5 22 L 9.5 24 L 8.5 22 Z "></path><path fill="rgb(235,141,24)" stroke="rgb(235,141,24)" stroke-width="1" opacity="0.2627450980392157" d="M 5.5 23 L 7.5 26 L 5.5 23 Z "></path><path fill="rgb(235,141,24)" stroke="rgb(235,141,24)" stroke-width="1" opacity="0.2627450980392157" d="M 15.5 23 L 16 24.5 L 13.5 26 L 13.5 25 Q 16 25.7 15.5 23 Z "></path><path fill="rgb(235,141,24)" stroke="rgb(235,141,24)" stroke-width="1" opacity="0.2627450980392157" d="M 119.5 23 L 121 23.5 L 118.5 25 L 119.5 23 Z "></path><path fill="rgb(235,141,24)" stroke="rgb(235,141,24)" stroke-width="1" opacity="0.2627450980392157" d="M 179.5 24 L 183 24.5 L 176 27.5 Q 175 34 179.5 35 L 182 36.5 L 180.5 36 L 175 31.5 Q 174 26 177.5 25 L 179.5 24 Z "></path><path fill="rgb(235,141,24)" stroke="rgb(235,141,24)" stroke-width="1" opacity="0.2627450980392157" d="M 117.5 26 L 119 28.5 L 117 27.5 L 117.5 26 Z "></path><path fill="rgb(235,141,24)" stroke="rgb(235,141,24)" stroke-width="1" opacity="0.2627450980392157" d="M 73.5 27 L 72.5 29 L 73.5 27 Z "></path><path fill="rgb(235,141,24)" stroke="rgb(235,141,24)" stroke-width="1" opacity="0.2627450980392157" d="M 20 30 L 22 30.5 L 20 31.5 L 20 30 Z "></path><path fill="rgb(235,141,24)" stroke="rgb(235,141,24)" stroke-width="1" opacity="0.2627450980392157" d="M 70.5 31 L 69.5 33 L 70.5 31 Z "></path><path fill="rgb(235,141,24)" stroke="rgb(235,141,24)" stroke-width="1" opacity="0.2627450980392157" d="M 83.5 32 L 86 32.5 L 83.5 33 L 83.5 32 Z "></path><path fill="rgb(235,141,24)" stroke="rgb(235,141,24)" stroke-width="1" opacity="0.2627450980392157" d="M 55.5 33 L 56.5 35 L 55.5 33 Z "></path><path fill="rgb(235,141,24)" stroke="rgb(235,141,24)" stroke-width="1" opacity="0.2627450980392157" d="M 118 33 L 123 33.5 L 123 50.5 L 122 50.5 L 122 34.5 L 119.5 34 L 118 34.5 L 118 33 Z "></path><path fill="rgb(235,141,24)" stroke="rgb(235,141,24)" stroke-width="1" opacity="0.2627450980392157" d="M 14.5 34 L 13.5 36 L 14.5 34 Z "></path><path fill="rgb(235,141,24)" stroke="rgb(235,141,24)" stroke-width="1" opacity="0.2627450980392157" d="M 19.5 34 L 17.5 37 L 19.5 34 Z "></path><path fill="rgb(235,141,24)" stroke="rgb(235,141,24)" stroke-width="1" opacity="0.2627450980392157" d="M 44.5 34 L 43.5 36 L 44.5 34 Z "></path><path fill="rgb(235,141,24)" stroke="rgb(235,141,24)" stroke-width="1" opacity="0.2627450980392157" d="M 50.5 34 L 53 34.5 L 50.5 35 L 50.5 34 Z "></path><path fill="rgb(235,141,24)" stroke="rgb(235,141,24)" stroke-width="1" opacity="0.2627450980392157" d="M 84.5 34 Q 89.3 33.3 90 36.5 Q 88.7 39.3 87.5 37 L 86 36.5 L 88 35.5 Q 83.6 35.9 84.5 34 Z "></path><path fill="rgb(235,141,24)" stroke="rgb(235,141,24)" stroke-width="1" opacity="0.2627450980392157" d="M 102.5 34 L 103 38.5 L 102 38.5 L 102.5 34 Z "></path><path fill="rgb(235,141,24)" stroke="rgb(235,141,24)" stroke-width="1" opacity="0.2627450980392157" d="M 21.5 36 L 19.5 39 L 21.5 36 Z "></path><path fill="rgb(235,141,24)" stroke="rgb(235,141,24)" stroke-width="1" opacity="0.2627450980392157" d="M 50.5 36 L 52 36.5 L 50 37 L 49.5 39 L 49 37.5 L 50.5 36 Z "></path><path fill="rgb(235,141,24)" stroke="rgb(235,141,24)" stroke-width="1" opacity="0.2627450980392157" d="M 66.5 36 L 67 52.5 L 66 52.5 L 66.5 36 Z "></path><path fill="rgb(235,141,24)" stroke="rgb(235,141,24)" stroke-width="1" opacity="0.2627450980392157" d="M 81.5 36 L 82 38.5 L 81 38.5 L 81.5 36 Z "></path><path fill="rgb(235,141,24)" stroke="rgb(235,141,24)" stroke-width="1" opacity="0.2627450980392157" d="M 117.5 36 L 117.5 38 L 119 38.5 L 119 52.5 L 118 52.5 L 117.5 40 L 116 40.5 L 117 38.5 L 115 38.5 L 117.5 36 Z "></path><path fill="rgb(235,141,24)" stroke="rgb(235,141,24)" stroke-width="1" opacity="0.2627450980392157" d="M 142.5 36 L 145 36.5 L 142.5 37 L 142.5 36 Z "></path><path fill="rgb(235,141,24)" stroke="rgb(235,141,24)" stroke-width="1" opacity="0.2627450980392157" d="M 22.5 38 L 21.5 40 L 22.5 38 Z "></path><path fill="rgb(235,141,24)" stroke="rgb(235,141,24)" stroke-width="1" opacity="0.2627450980392157" d="M 59.5 38 L 59.5 40 L 61.5 39 L 60.5 41 Q 57.2 42.1 58 39.5 L 59.5 38 Z "></path><path fill="rgb(235,141,24)" stroke="rgb(235,141,24)" stroke-width="1" opacity="0.2627450980392157" d="M 56.5 39 L 55.5 41 L 56.5 39 Z "></path><path fill="rgb(235,141,24)" stroke="rgb(235,141,24)" stroke-width="1" opacity="0.2627450980392157" d="M 76.5 40 L 77 42.5 L 76 42.5 L 76.5 40 Z "></path><path fill="rgb(235,141,24)" stroke="rgb(235,141,24)" stroke-width="1" opacity="0.2627450980392157" d="M 80.5 40 L 81 50.5 L 80 50.5 L 80.5 40 Z "></path><path fill="rgb(235,141,24)" stroke="rgb(235,141,24)" stroke-width="1" opacity="0.2627450980392157" d="M 102.5 40 L 105 40.5 L 102.5 41 L 102.5 40 Z "></path><path fill="rgb(235,141,24)" stroke="rgb(235,141,24)" stroke-width="1" opacity="0.2627450980392157" d="M 108.5 40 L 111.5 44 L 108.5 40 Z "></path><path fill="rgb(235,141,24)" stroke="rgb(235,141,24)" stroke-width="1" opacity="0.2627450980392157" d="M 20.5 41 L 21 44.5 L 20 44.5 L 20.5 41 Z "></path><path fill="rgb(235,141,24)" stroke="rgb(235,141,24)" stroke-width="1" opacity="0.2627450980392157" d="M 95.5 41 L 96 49.5 L 95 49.5 L 95.5 41 Z "></path><path fill="rgb(235,141,24)" stroke="rgb(235,141,24)" stroke-width="1" opacity="0.2627450980392157" d="M 132.5 41 L 133 43.5 L 132 43.5 L 132.5 41 Z "></path><path fill="rgb(235,141,24)" stroke="rgb(235,141,24)" stroke-width="1" opacity="0.2627450980392157" d="M 29.5 42 L 31 42.5 L 29 43 L 28.5 45 L 28 43.5 L 29.5 42 Z "></path><path fill="rgb(235,141,24)" stroke="rgb(235,141,24)" stroke-width="1" opacity="0.2627450980392157" d="M 91.5 42 L 92 46.5 L 91 46.5 L 91.5 42 Z "></path><path fill="rgb(235,141,24)" stroke="rgb(235,141,24)" stroke-width="1" opacity="0.2627450980392157" d="M 105.5 42 L 109 47.5 L 108 47.5 L 105.5 42 Z "></path><path fill="rgb(235,141,24)" stroke="rgb(235,141,24)" stroke-width="1" opacity="0.2627450980392157" d="M 136.5 43 L 137 47.5 L 136 47.5 L 136.5 43 Z "></path><path fill="rgb(235,141,24)" stroke="rgb(235,141,24)" stroke-width="1" opacity="0.2627450980392157" d="M 35.5 44 L 36 47.5 L 35 47.5 L 35.5 44 Z "></path><path fill="rgb(235,141,24)" stroke="rgb(235,141,24)" stroke-width="1" opacity="0.2627450980392157" d="M 40.5 44 L 41 48.5 L 40 48.5 L 40.5 44 Z "></path><path fill="rgb(235,141,24)" stroke="rgb(235,141,24)" stroke-width="1" opacity="0.2627450980392157" d="M 240.5 44 L 246 47.5 L 247 51.5 L 244.5 55 L 239.5 56 L 236 54.5 L 238.5 54 L 242.5 55 L 245 54 L 246 49.5 L 243.5 46 Q 239.7 45.8 240.5 44 Z "></path><path fill="rgb(235,141,24)" stroke="rgb(235,141,24)" stroke-width="1" opacity="0.2627450980392157" d="M 101.5 45 L 104 45.5 L 101.5 46 L 101.5 45 Z "></path><path fill="rgb(235,141,24)" stroke="rgb(235,141,24)" stroke-width="1" opacity="0.2627450980392157" d="M 15.5 46 L 16 48.5 L 15 48.5 L 15.5 46 Z "></path><path fill="rgb(235,141,24)" stroke="rgb(235,141,24)" stroke-width="1" opacity="0.2627450980392157" d="M 21.5 46 L 22.5 48 L 21.5 46 Z "></path><path fill="rgb(235,141,24)" stroke="rgb(235,141,24)" stroke-width="1" opacity="0.2627450980392157" d="M 99.5 46 L 97.5 49 L 99.5 46 Z "></path><path fill="rgb(235,141,24)" stroke="rgb(235,141,24)" stroke-width="1" opacity="0.2627450980392157" d="M 105.5 46 L 106.5 48 L 105.5 46 Z "></path><path fill="rgb(235,141,24)" stroke="rgb(235,141,24)" stroke-width="1" opacity="0.2627450980392157" d="M 19.5 48 L 20.5 50 L 19.5 48 Z "></path><path fill="rgb(235,141,24)" stroke="rgb(235,141,24)" stroke-width="1" opacity="0.2627450980392157" d="M 29.5 48 L 28.5 50 L 29.5 48 Z "></path><path fill="rgb(235,141,24)" stroke="rgb(235,141,24)" stroke-width="1" opacity="0.2627450980392157" d="M 56 48 L 59 48.5 L 57 49 L 56.5 51 L 56 48 Z "></path><path fill="rgb(235,141,24)" stroke="rgb(235,141,24)" stroke-width="1" opacity="0.2627450980392157" d="M 72 48 L 75 48.5 L 73 49 L 72.5 54 L 72 48 Z "></path><path fill="rgb(235,141,24)" stroke="rgb(235,141,24)" stroke-width="1" opacity="0.2627450980392157" d="M 76.5 48 L 77 51.5 L 76 51.5 L 76.5 48 Z "></path><path fill="rgb(235,141,24)" stroke="rgb(235,141,24)" stroke-width="1" opacity="0.2627450980392157" d="M 113.5 48 L 114 51.5 L 113 51.5 L 113.5 48 Z "></path><path fill="rgb(235,141,24)" stroke="rgb(235,141,24)" stroke-width="1" opacity="0.2627450980392157" d="M 132.5 48 L 133 50.5 L 132 50.5 L 132.5 48 Z "></path><path fill="rgb(235,141,24)" stroke="rgb(235,141,24)" stroke-width="1" opacity="0.2627450980392157" d="M 128.5 49 L 129 53.5 L 128 53.5 L 128.5 49 Z "></path><path fill="rgb(235,141,24)" stroke="rgb(235,141,24)" stroke-width="1" opacity="0.2627450980392157" d="M 23.5 50 L 26 50.5 L 23.5 51 L 23.5 50 Z "></path><path fill="rgb(235,141,24)" stroke="rgb(235,141,24)" stroke-width="1" opacity="0.2627450980392157" d="M 58.5 50 L 59 52.5 L 58 52.5 L 58.5 50 Z "></path><path fill="rgb(235,141,24)" stroke="rgb(235,141,24)" stroke-width="1" opacity="0.2627450980392157" d="M 62.5 50 L 63 53.5 L 62 53.5 L 62.5 50 Z "></path><path fill="rgb(235,141,24)" stroke="rgb(235,141,24)" stroke-width="1" opacity="0.2627450980392157" d="M 99.5 50 L 100 53.5 L 99 53.5 L 99.5 50 Z "></path><path fill="rgb(235,141,24)" stroke="rgb(235,141,24)" stroke-width="1" opacity="0.2627450980392157" d="M 34.5 51 L 33.5 53 L 34.5 51 Z "></path><path fill="rgb(235,141,24)" stroke="rgb(235,141,24)" stroke-width="1" opacity="0.2627450980392157" d="M 106.5 51 L 107 52.5 L 105 53.5 L 106.5 51 Z "></path><path fill="rgb(235,141,24)" stroke="rgb(235,141,24)" stroke-width="1" opacity="0.2627450980392157" d="M 74.5 52 L 75 54.5 L 74 54.5 L 74.5 52 Z "></path><path fill="rgb(235,141,24)" stroke="rgb(235,141,24)" stroke-width="1" opacity="0.2627450980392157" d="M 12.5 53 L 15.5 57 L 12.5 53 Z "></path><path fill="rgb(235,141,24)" stroke="rgb(235,141,24)" stroke-width="1" opacity="0.2627450980392157" d="M 81.5 53 L 82.5 55 L 81.5 53 Z "></path><path fill="rgb(235,141,24)" stroke="rgb(235,141,24)" stroke-width="1" opacity="0.2627450980392157" d="M 112.5 53 L 113 54.5 L 111 55.5 L 112.5 53 Z "></path><path fill="rgb(235,141,24)" stroke="rgb(235,141,24)" stroke-width="1" opacity="0.2627450980392157" d="M 67.5 54 L 69 56.5 L 67 55.5 L 67.5 54 Z "></path><path fill="rgb(235,141,24)" stroke="rgb(235,141,24)" stroke-width="1" opacity="0.2627450980392157" d="M 89.5 54 L 87.5 57 L 86 56.5 L 89.5 54 Z "></path><path fill="rgb(235,141,24)" stroke="rgb(235,141,24)" stroke-width="1" opacity="0.2627450980392157" d="M 97.5 54 L 100.5 58 L 103 58.5 L 100.5 59 L 97 55.5 L 97.5 54 Z "></path><path fill="rgb(235,141,24)" stroke="rgb(235,141,24)" stroke-width="1" opacity="0.2627450980392157" d="M 108.5 54 L 106.5 57 L 105 56.5 L 108.5 54 Z "></path><path fill="rgb(235,141,24)" stroke="rgb(235,141,24)" stroke-width="1" opacity="0.2627450980392157" d="M 186.5 54 L 183 58.5 L 182 62.5 L 183 65 L 187.5 66 L 191.5 64 L 191.5 65 L 185.5 67 L 182 64.5 L 181 60.5 L 183 56 L 186.5 54 Z "></path><path fill="rgb(235,141,24)" stroke="rgb(235,141,24)" stroke-width="1" opacity="0.2627450980392157" d="M 63.5 55 L 65.5 58 L 68 58.5 L 65.5 59 Q 61.9 57.9 63.5 55 Z "></path><path fill="rgb(235,141,24)" stroke="rgb(235,141,24)" stroke-width="1" opacity="0.2627450980392157" d="M 71.5 55 L 70.5 57 L 71.5 55 Z "></path><path fill="rgb(235,141,24)" stroke="rgb(235,141,24)" stroke-width="1" opacity="0.2627450980392157" d="M 78.5 55 L 80.5 58 L 78.5 55 Z "></path><path fill="rgb(235,141,24)" stroke="rgb(235,141,24)" stroke-width="1" opacity="0.2627450980392157" d="M 134.5 55 L 136.5 58 L 134.5 55 Z "></path><path fill="rgb(235,141,24)" stroke="rgb(235,141,24)" stroke-width="1" opacity="0.2627450980392157" d="M 43.5 56 L 44.5 58 L 43.5 56 Z "></path><path fill="rgb(235,141,24)" stroke="rgb(235,141,24)" stroke-width="1" opacity="0.2627450980392157" d="M 120.5 57 L 124 58.5 L 122.5 59 L 120.5 57 Z "></path><path fill="rgb(235,141,24)" stroke="rgb(235,141,24)" stroke-width="1" opacity="0.2627450980392157" d="M 198.5 57 L 193.5 63 L 198.5 57 Z "></path><path fill="rgb(235,141,24)" stroke="rgb(235,141,24)" stroke-width="1" opacity="0.2627450980392157" d="M 19.5 58 L 23 58.5 L 19.5 59 L 19.5 58 Z "></path><path fill="rgb(235,141,24)" stroke="rgb(235,141,24)" stroke-width="1" opacity="0.2627450980392157" d="M 222.5 68 L 223 71.5 L 222 71.5 L 222.5 68 Z "></path><path fill="rgb(235,141,24)" stroke="rgb(235,141,24)" stroke-width="1" opacity="0.2627450980392157" d="M 211.5 69 L 215.5 76 Q 220.9 77.9 220 74.5 L 222 73.5 L 219.5 77 L 213 76 L 211 71.5 L 211.5 69 Z "></path><path fill="rgb(139,167,111)" stroke="rgb(139,167,111)" stroke-width="1" opacity="0.8313725490196079" d="M 202.5 4 Q 208 3 209 6.5 L 211 13.5 L 210 13.5 L 209.5 12 L 201.5 19 Q 199.1 14.9 200 7.5 L 202.5 4 Z "></path><path fill="rgb(139,167,111)" stroke="rgb(139,167,111)" stroke-width="1" opacity="0.8313725490196079" d="M 211.5 17 L 212 36.5 L 213 37.5 L 211 38 L 211.5 17 Z "></path><path fill="rgb(139,167,111)" stroke="rgb(139,167,111)" stroke-width="1" opacity="0.8313725490196079" d="M 225.5 20 L 222.5 24 L 225.5 20 Z "></path><path fill="rgb(139,167,111)" stroke="rgb(139,167,111)" stroke-width="1" opacity="0.8313725490196079" d="M 121.5 24 L 122.5 26 L 121.5 24 Z "></path><path fill="rgb(139,167,111)" stroke="rgb(139,167,111)" stroke-width="1" opacity="0.8313725490196079" d="M 179.5 25 L 183.5 25 L 194 29.5 L 192.5 30 L 189.5 29 L 183 34 Q 184.1 36.7 181.5 36 L 176 31.5 Q 175 27 177.5 26 L 179.5 25 Z "></path><path fill="rgb(139,167,111)" stroke="rgb(139,167,111)" stroke-width="1" opacity="0.8313725490196079" d="M 221.5 25 L 218.5 29 L 221.5 25 Z "></path><path fill="rgb(139,167,111)" stroke="rgb(139,167,111)" stroke-width="1" opacity="0.8313725490196079" d="M 118.5 27 L 119.5 29 L 118.5 27 Z "></path><path fill="rgb(139,167,111)" stroke="rgb(139,167,111)" stroke-width="1" opacity="0.8313725490196079" d="M 217.5 30 L 216.5 32 L 217.5 30 Z "></path><path fill="rgb(139,167,111)" stroke="rgb(139,167,111)" stroke-width="1" opacity="0.8313725490196079" d="M 140 32 Q 146 31.3 149 34 L 152 40.5 L 152 50.5 L 147.5 58 L 139.5 59 Q 141.2 56.7 137 54.5 L 137.5 53 L 140.5 57 L 145 56 Q 148.7 51.1 147 39.5 L 145.5 37 L 142.5 41 Q 138.8 41.8 138 39.5 L 139 37 L 137 36.5 L 140 35 L 140 32 Z M 142 34 Q 139 35 140 39 Q 143 40 142 37 L 145 37 L 142 34 Z "></path><path fill="rgb(139,167,111)" stroke="rgb(139,167,111)" stroke-width="1" opacity="0.8313725490196079" d="M 165.5 32 Q 172 31 174 34.5 L 175 36.5 L 175 49.5 L 176 54.5 L 178.5 57 Q 182.8 55.1 181 48 L 184 49.5 L 183 56.5 L 181.5 58 L 174.5 59 L 171 54.5 Q 173.2 41.3 168.5 35 Q 163 34 162 37.5 Q 159.6 44.6 161 55.5 L 162 58 Q 154.5 60.8 157 52.5 L 156 51.5 L 155.5 40 L 153 41 Q 151.5 37.2 154.5 38 Q 157 36.8 156 33 L 161 33 L 161 34.5 L 163.5 33 L 165.5 32 Z "></path><path fill="rgb(139,167,111)" stroke="rgb(139,167,111)" stroke-width="1" opacity="0.8313725490196079" d="M 137.5 33 L 135.5 36 L 137.5 33 Z "></path><path fill="rgb(139,167,111)" stroke="rgb(139,167,111)" stroke-width="1" opacity="0.8313725490196079" d="M 223.5 33 L 222.5 35 L 223.5 33 Z "></path><path fill="rgb(139,167,111)" stroke="rgb(139,167,111)" stroke-width="1" opacity="0.8313725490196079" d="M 214.5 34 L 213.5 36 L 214.5 34 Z "></path><path fill="rgb(139,167,111)" stroke="rgb(139,167,111)" stroke-width="1" opacity="0.8313725490196079" d="M 192.5 38 L 196 38.5 L 192.5 39 L 192.5 38 Z "></path><path fill="rgb(139,167,111)" stroke="rgb(139,167,111)" stroke-width="1" opacity="0.8313725490196079" d="M 136.5 39 L 137 42.5 L 136 42.5 L 136.5 39 Z "></path><path fill="rgb(139,167,111)" stroke="rgb(139,167,111)" stroke-width="1" opacity="0.8313725490196079" d="M 199.5 39 L 204 39.5 L 199.5 40 L 199.5 39 Z "></path><path fill="rgb(139,167,111)" stroke="rgb(139,167,111)" stroke-width="1" opacity="0.8313725490196079" d="M 208.5 40 L 207.5 42 L 208.5 40 Z "></path><path fill="rgb(139,167,111)" stroke="rgb(139,167,111)" stroke-width="1" opacity="0.8313725490196079" d="M 218.5 40 L 223 40.5 L 218.5 41 L 218.5 40 Z "></path><path fill="rgb(139,167,111)" stroke="rgb(139,167,111)" stroke-width="1" opacity="0.8313725490196079" d="M 209.5 42 Q 212.1 41.2 211 44.5 L 210 44.5 L 209.5 42 Z "></path><path fill="rgb(139,167,111)" stroke="rgb(139,167,111)" stroke-width="1" opacity="0.8313725490196079" d="M 132.5 44 L 133 47.5 L 132 47.5 L 132.5 44 Z "></path><path fill="rgb(139,167,111)" stroke="rgb(139,167,111)" stroke-width="1" opacity="0.8313725490196079" d="M 217.5 44 L 218.5 46 L 217.5 44 Z "></path><path fill="rgb(139,167,111)" stroke="rgb(139,167,111)" stroke-width="1" opacity="0.8313725490196079" d="M 199.5 45 L 198.5 47 L 199.5 45 Z "></path><path fill="rgb(139,167,111)" stroke="rgb(139,167,111)" stroke-width="1" opacity="0.8313725490196079" d="M 207.5 45 L 206.5 47 L 207.5 45 Z "></path><path fill="rgb(139,167,111)" stroke="rgb(139,167,111)" stroke-width="1" opacity="0.8313725490196079" d="M 129.5 48 Q 132 49 131 53.5 L 130 53.5 L 129.5 48 Z "></path><path fill="rgb(139,167,111)" stroke="rgb(139,167,111)" stroke-width="1" opacity="0.8313725490196079" d="M 136.5 48 L 137 51.5 L 136 51.5 L 136.5 48 Z "></path><path fill="rgb(139,167,111)" stroke="rgb(139,167,111)" stroke-width="1" opacity="0.8313725490196079" d="M 194.5 48 L 193.5 50 L 194.5 48 Z "></path><path fill="rgb(139,167,111)" stroke="rgb(139,167,111)" stroke-width="1" opacity="0.8313725490196079" d="M 204.5 49 L 203.5 51 L 204.5 49 Z "></path><path fill="rgb(139,167,111)" stroke="rgb(139,167,111)" stroke-width="1" opacity="0.8313725490196079" d="M 191.5 50 L 189.5 53 L 191.5 50 Z "></path><path fill="rgb(139,167,111)" stroke="rgb(139,167,111)" stroke-width="1" opacity="0.8313725490196079" d="M 122.5 51 L 123 53.5 L 122 53.5 L 122.5 51 Z "></path><path fill="rgb(139,167,111)" stroke="rgb(139,167,111)" stroke-width="1" opacity="0.8313725490196079" d="M 202.5 52 L 201.5 54 L 202.5 52 Z "></path><path fill="rgb(139,167,111)" stroke="rgb(139,167,111)" stroke-width="1" opacity="0.8313725490196079" d="M 128.5 54 L 130 56.5 Q 128.5 59.5 127 56.5 L 128.5 54 Z "></path><path fill="rgb(139,167,111)" stroke="rgb(139,167,111)" stroke-width="1" opacity="0.8313725490196079" d="M 134.5 54 L 137.5 58 L 134.5 54 Z "></path><path fill="rgb(189,222,91)" stroke="rgb(189,222,91)" stroke-width="1" opacity="0.9803921568627451" d="M 209.5 12 L 211 14.5 L 211 38 Q 213.7 39.1 213 36.5 L 230.5 16 L 236.5 14 L 240 18.5 Q 238.4 25.4 232.5 28 L 212 39.5 L 232.5 42 Q 240.3 43.3 245 47.5 L 246 51.5 L 245 54 L 239.5 55 Q 223.7 50.3 212.5 41 L 212 42.5 L 219 56.5 L 222 67.5 L 222 72.5 L 220 76 Q 214.5 77.3 213 73.5 Q 207.9 63.1 210 45.5 L 211 42 Q 208.3 40.9 209 43.5 Q 201.8 55.3 191.5 64 L 185.5 66 L 183 65 L 182 60.5 L 188.5 53 L 209 40.5 L 190.5 38 L 183 36 Q 181.9 33.3 184.5 34 L 189.5 29 L 191.5 29 L 209.5 39 L 210 37.5 Q 204.5 29.5 202 18.5 L 209.5 12 Z "></path><path fill="rgb(189,222,91)" stroke="rgb(189,222,91)" stroke-width="1" opacity="0.9803921568627451" d="M 119.5 24 L 123 26.5 Q 120.5 31.5 118 26.5 L 119.5 24 Z "></path><path fill="rgb(189,222,91)" stroke="rgb(189,222,91)" stroke-width="1" opacity="0.9803921568627451" d="M 138.5 33 Q 141.1 32.3 140 35 L 137 36.5 Q 134.5 42 136 51.5 L 140 57.5 L 138.5 58 Q 130.9 54.1 133 40.5 L 138.5 33 Z "></path><path fill="rgb(189,222,91)" stroke="rgb(189,222,91)" stroke-width="1" opacity="0.9803921568627451" d="M 119.5 34 L 122 34.5 L 122 53.5 L 123 57 Q 127.6 58.3 129 55.5 L 129.5 49 L 130 55.5 Q 128.8 59.3 122.5 58 L 119 52.5 L 119 38 L 117 37.5 L 119.5 34 Z "></path><path fill="rgb(189,222,91)" stroke="rgb(189,222,91)" stroke-width="1" opacity="0.9803921568627451" d="M 138.5 37 L 140 39.5 L 138 38.5 L 138.5 37 Z "></path></svg>